<mxfile host="Electron" agent="Mozilla/5.0 (Windows NT 10.0; Win64; x64) AppleWebKit/537.36 (KHTML, like Gecko) draw.io/28.2.8 Chrome/140.0.7339.240 Electron/38.4.0 Safari/537.36" version="28.2.8">
  <diagram name="Page-1" id="UwBWOIQTeAo4LYeOZIxf">
    <mxGraphModel dx="2798" dy="1480" grid="1" gridSize="10" guides="1" tooltips="1" connect="1" arrows="1" fold="1" page="1" pageScale="1" pageWidth="827" pageHeight="1169" math="0" shadow="0">
      <root>
        <mxCell id="0" />
        <mxCell id="1" parent="0" />
        <mxCell id="pyN2dDHNcmE_-hGfzLAD-3" value="&lt;font style=&quot;font-size: 15px;&quot;&gt;Mulai&lt;/font&gt;" style="rounded=1;whiteSpace=wrap;html=1;arcSize=50;" parent="1" vertex="1">
          <mxGeometry x="349" y="130" width="130" height="60" as="geometry" />
        </mxCell>
        <mxCell id="pyN2dDHNcmE_-hGfzLAD-12" value="" style="edgeStyle=orthogonalEdgeStyle;rounded=0;orthogonalLoop=1;jettySize=auto;html=1;" parent="1" source="pyN2dDHNcmE_-hGfzLAD-4" target="pyN2dDHNcmE_-hGfzLAD-11" edge="1">
          <mxGeometry relative="1" as="geometry" />
        </mxCell>
        <mxCell id="pyN2dDHNcmE_-hGfzLAD-4" value="Input Golongan" style="shape=parallelogram;perimeter=parallelogramPerimeter;whiteSpace=wrap;html=1;fixedSize=1;fontSize=15;" parent="1" vertex="1">
          <mxGeometry x="329" y="250" width="170" height="60" as="geometry" />
        </mxCell>
        <mxCell id="pyN2dDHNcmE_-hGfzLAD-7" value="" style="endArrow=classic;html=1;rounded=0;exitX=0.5;exitY=1;exitDx=0;exitDy=0;entryX=0.5;entryY=0;entryDx=0;entryDy=0;" parent="1" source="pyN2dDHNcmE_-hGfzLAD-3" target="pyN2dDHNcmE_-hGfzLAD-4" edge="1">
          <mxGeometry width="50" height="50" relative="1" as="geometry">
            <mxPoint x="330" y="430" as="sourcePoint" />
            <mxPoint x="380" y="380" as="targetPoint" />
          </mxGeometry>
        </mxCell>
        <mxCell id="pyN2dDHNcmE_-hGfzLAD-14" value="" style="edgeStyle=orthogonalEdgeStyle;rounded=0;orthogonalLoop=1;jettySize=auto;html=1;curved=1;" parent="1" source="pyN2dDHNcmE_-hGfzLAD-18" target="pyN2dDHNcmE_-hGfzLAD-13" edge="1">
          <mxGeometry relative="1" as="geometry" />
        </mxCell>
        <mxCell id="pyN2dDHNcmE_-hGfzLAD-23" value="" style="edgeStyle=orthogonalEdgeStyle;rounded=0;orthogonalLoop=1;jettySize=auto;html=1;curved=1;" parent="1" source="pyN2dDHNcmE_-hGfzLAD-106" target="pyN2dDHNcmE_-hGfzLAD-22" edge="1">
          <mxGeometry relative="1" as="geometry" />
        </mxCell>
        <mxCell id="pyN2dDHNcmE_-hGfzLAD-11" value="Golongan = A?" style="rhombus;whiteSpace=wrap;html=1;fontSize=15;" parent="1" vertex="1">
          <mxGeometry x="335" y="380" width="158" height="160" as="geometry" />
        </mxCell>
        <mxCell id="pyN2dDHNcmE_-hGfzLAD-17" value="" style="edgeStyle=orthogonalEdgeStyle;rounded=0;orthogonalLoop=1;jettySize=auto;html=1;curved=1;" parent="1" source="pyN2dDHNcmE_-hGfzLAD-20" target="pyN2dDHNcmE_-hGfzLAD-16" edge="1">
          <mxGeometry relative="1" as="geometry" />
        </mxCell>
        <mxCell id="pyN2dDHNcmE_-hGfzLAD-25" value="" style="edgeStyle=orthogonalEdgeStyle;rounded=0;orthogonalLoop=1;jettySize=auto;html=1;curved=1;" parent="1" source="pyN2dDHNcmE_-hGfzLAD-108" target="pyN2dDHNcmE_-hGfzLAD-24" edge="1">
          <mxGeometry relative="1" as="geometry" />
        </mxCell>
        <mxCell id="pyN2dDHNcmE_-hGfzLAD-13" value="Golongan = B?" style="rhombus;whiteSpace=wrap;html=1;fontSize=15;" parent="1" vertex="1">
          <mxGeometry x="520" y="670" width="160" height="160" as="geometry" />
        </mxCell>
        <mxCell id="pyN2dDHNcmE_-hGfzLAD-27" value="" style="edgeStyle=orthogonalEdgeStyle;rounded=0;orthogonalLoop=1;jettySize=auto;html=1;curved=1;" parent="1" source="pyN2dDHNcmE_-hGfzLAD-110" target="pyN2dDHNcmE_-hGfzLAD-26" edge="1">
          <mxGeometry relative="1" as="geometry" />
        </mxCell>
        <mxCell id="pyN2dDHNcmE_-hGfzLAD-29" value="" style="edgeStyle=orthogonalEdgeStyle;rounded=0;orthogonalLoop=1;jettySize=auto;html=1;curved=1;exitX=0.5;exitY=1;exitDx=0;exitDy=0;" parent="1" source="pyN2dDHNcmE_-hGfzLAD-122" target="pyN2dDHNcmE_-hGfzLAD-28" edge="1">
          <mxGeometry relative="1" as="geometry" />
        </mxCell>
        <mxCell id="pyN2dDHNcmE_-hGfzLAD-16" value="Golongan = C?" style="rhombus;whiteSpace=wrap;html=1;fontSize=15;" parent="1" vertex="1">
          <mxGeometry x="710" y="940" width="158" height="160" as="geometry" />
        </mxCell>
        <mxCell id="pyN2dDHNcmE_-hGfzLAD-19" value="" style="edgeStyle=orthogonalEdgeStyle;rounded=0;orthogonalLoop=1;jettySize=auto;html=1;curved=1;" parent="1" source="pyN2dDHNcmE_-hGfzLAD-11" target="pyN2dDHNcmE_-hGfzLAD-18" edge="1">
          <mxGeometry relative="1" as="geometry">
            <mxPoint x="482" y="440" as="sourcePoint" />
            <mxPoint x="578" y="630" as="targetPoint" />
          </mxGeometry>
        </mxCell>
        <mxCell id="pyN2dDHNcmE_-hGfzLAD-18" value="Tidak" style="text;html=1;align=center;verticalAlign=middle;whiteSpace=wrap;rounded=0;" parent="1" vertex="1">
          <mxGeometry x="570" y="569" width="60" height="30" as="geometry" />
        </mxCell>
        <mxCell id="pyN2dDHNcmE_-hGfzLAD-21" value="" style="edgeStyle=orthogonalEdgeStyle;rounded=0;orthogonalLoop=1;jettySize=auto;html=1;curved=1;" parent="1" source="pyN2dDHNcmE_-hGfzLAD-13" target="pyN2dDHNcmE_-hGfzLAD-20" edge="1">
          <mxGeometry relative="1" as="geometry">
            <mxPoint x="646" y="700" as="sourcePoint" />
            <mxPoint x="738" y="810" as="targetPoint" />
          </mxGeometry>
        </mxCell>
        <mxCell id="pyN2dDHNcmE_-hGfzLAD-20" value="Tidak" style="text;html=1;align=center;verticalAlign=middle;whiteSpace=wrap;rounded=0;" parent="1" vertex="1">
          <mxGeometry x="759" y="860" width="60" height="30" as="geometry" />
        </mxCell>
        <mxCell id="pyN2dDHNcmE_-hGfzLAD-22" value="Gaji = 5.000.000" style="whiteSpace=wrap;html=1;fontSize=15;" parent="1" vertex="1">
          <mxGeometry x="-180" y="1310" width="240" height="60" as="geometry" />
        </mxCell>
        <mxCell id="pyN2dDHNcmE_-hGfzLAD-42" value="" style="edgeStyle=orthogonalEdgeStyle;rounded=0;orthogonalLoop=1;jettySize=auto;html=1;curved=1;exitX=0.5;exitY=1;exitDx=0;exitDy=0;entryX=0.5;entryY=0;entryDx=0;entryDy=0;" parent="1" source="pyN2dDHNcmE_-hGfzLAD-24" target="pyN2dDHNcmE_-hGfzLAD-48" edge="1">
          <mxGeometry relative="1" as="geometry">
            <mxPoint x="404.1439999999998" y="1578.1999999999998" as="targetPoint" />
          </mxGeometry>
        </mxCell>
        <mxCell id="pyN2dDHNcmE_-hGfzLAD-24" value="Gaji = 6.500.000" style="whiteSpace=wrap;html=1;fontSize=15;" parent="1" vertex="1">
          <mxGeometry x="135" y="1310" width="235" height="60" as="geometry" />
        </mxCell>
        <mxCell id="pyN2dDHNcmE_-hGfzLAD-37" value="" style="edgeStyle=orthogonalEdgeStyle;rounded=0;orthogonalLoop=1;jettySize=auto;html=1;curved=1;exitX=0.5;exitY=1;exitDx=0;exitDy=0;entryX=0.5;entryY=0;entryDx=0;entryDy=0;" parent="1" source="pyN2dDHNcmE_-hGfzLAD-26" target="pyN2dDHNcmE_-hGfzLAD-48" edge="1">
          <mxGeometry relative="1" as="geometry">
            <mxPoint x="434.94399999999996" y="1577.6599999999999" as="targetPoint" />
          </mxGeometry>
        </mxCell>
        <mxCell id="pyN2dDHNcmE_-hGfzLAD-26" value="Gaji = 9.500.000" style="whiteSpace=wrap;html=1;fontSize=15;" parent="1" vertex="1">
          <mxGeometry x="450" y="1310" width="240" height="60" as="geometry" />
        </mxCell>
        <mxCell id="pyN2dDHNcmE_-hGfzLAD-44" value="" style="edgeStyle=orthogonalEdgeStyle;rounded=0;orthogonalLoop=1;jettySize=auto;html=1;curved=1;entryX=0.5;entryY=0;entryDx=0;entryDy=0;exitX=0.5;exitY=1;exitDx=0;exitDy=0;" parent="1" source="pyN2dDHNcmE_-hGfzLAD-28" target="pyN2dDHNcmE_-hGfzLAD-48" edge="1">
          <mxGeometry relative="1" as="geometry">
            <mxPoint x="472.25599999999986" y="1578.3199999999997" as="targetPoint" />
          </mxGeometry>
        </mxCell>
        <mxCell id="pyN2dDHNcmE_-hGfzLAD-28" value="Gaji = 0 / Invalid" style="whiteSpace=wrap;html=1;fontSize=15;" parent="1" vertex="1">
          <mxGeometry x="770" y="1310" width="240" height="60" as="geometry" />
        </mxCell>
        <mxCell id="pyN2dDHNcmE_-hGfzLAD-34" value="" style="edgeStyle=orthogonalEdgeStyle;rounded=0;orthogonalLoop=1;jettySize=auto;html=1;curved=1;exitX=0.5;exitY=1;exitDx=0;exitDy=0;" parent="1" source="pyN2dDHNcmE_-hGfzLAD-22" target="pyN2dDHNcmE_-hGfzLAD-48" edge="1">
          <mxGeometry relative="1" as="geometry">
            <mxPoint y="1180" as="sourcePoint" />
            <mxPoint x="370" y="1579.9999999999998" as="targetPoint" />
          </mxGeometry>
        </mxCell>
        <mxCell id="pyN2dDHNcmE_-hGfzLAD-50" value="" style="edgeStyle=orthogonalEdgeStyle;rounded=0;orthogonalLoop=1;jettySize=auto;html=1;curved=1;" parent="1" source="pyN2dDHNcmE_-hGfzLAD-124" target="pyN2dDHNcmE_-hGfzLAD-49" edge="1">
          <mxGeometry relative="1" as="geometry" />
        </mxCell>
        <mxCell id="pyN2dDHNcmE_-hGfzLAD-59" value="" style="edgeStyle=orthogonalEdgeStyle;rounded=0;orthogonalLoop=1;jettySize=auto;html=1;curved=1;" parent="1" source="pyN2dDHNcmE_-hGfzLAD-112" target="pyN2dDHNcmE_-hGfzLAD-58" edge="1">
          <mxGeometry relative="1" as="geometry" />
        </mxCell>
        <mxCell id="pyN2dDHNcmE_-hGfzLAD-48" value="&lt;font&gt;Jam Lembur = 1?&lt;/font&gt;" style="rhombus;whiteSpace=wrap;html=1;fontSize=15;" parent="1" vertex="1">
          <mxGeometry x="331" y="1594" width="166" height="160" as="geometry" />
        </mxCell>
        <mxCell id="pyN2dDHNcmE_-hGfzLAD-52" value="" style="edgeStyle=orthogonalEdgeStyle;rounded=0;orthogonalLoop=1;jettySize=auto;html=1;curved=1;" parent="1" source="pyN2dDHNcmE_-hGfzLAD-126" target="pyN2dDHNcmE_-hGfzLAD-51" edge="1">
          <mxGeometry relative="1" as="geometry" />
        </mxCell>
        <mxCell id="pyN2dDHNcmE_-hGfzLAD-68" value="" style="edgeStyle=orthogonalEdgeStyle;rounded=0;orthogonalLoop=1;jettySize=auto;html=1;curved=1;" parent="1" source="pyN2dDHNcmE_-hGfzLAD-114" target="pyN2dDHNcmE_-hGfzLAD-62" edge="1">
          <mxGeometry relative="1" as="geometry">
            <mxPoint x="370" y="1960" as="targetPoint" />
          </mxGeometry>
        </mxCell>
        <mxCell id="pyN2dDHNcmE_-hGfzLAD-49" value="&lt;font&gt;Jam Lembur = 2?&lt;/font&gt;" style="rhombus;whiteSpace=wrap;html=1;fontSize=15;" parent="1" vertex="1">
          <mxGeometry x="540" y="1860" width="166" height="160" as="geometry" />
        </mxCell>
        <mxCell id="pyN2dDHNcmE_-hGfzLAD-54" value="" style="edgeStyle=orthogonalEdgeStyle;rounded=0;orthogonalLoop=1;jettySize=auto;html=1;curved=1;" parent="1" source="pyN2dDHNcmE_-hGfzLAD-128" target="pyN2dDHNcmE_-hGfzLAD-53" edge="1">
          <mxGeometry relative="1" as="geometry" />
        </mxCell>
        <mxCell id="pyN2dDHNcmE_-hGfzLAD-70" value="" style="edgeStyle=orthogonalEdgeStyle;rounded=0;orthogonalLoop=1;jettySize=auto;html=1;curved=1;entryX=0.5;entryY=0;entryDx=0;entryDy=0;" parent="1" source="pyN2dDHNcmE_-hGfzLAD-116" target="pyN2dDHNcmE_-hGfzLAD-63" edge="1">
          <mxGeometry relative="1" as="geometry">
            <mxPoint x="567.0000000000005" y="2200" as="targetPoint" />
          </mxGeometry>
        </mxCell>
        <mxCell id="pyN2dDHNcmE_-hGfzLAD-51" value="&lt;font&gt;Jam Lembur = 3?&lt;/font&gt;" style="rhombus;whiteSpace=wrap;html=1;fontSize=15;" parent="1" vertex="1">
          <mxGeometry x="730" y="2120" width="166" height="160" as="geometry" />
        </mxCell>
        <mxCell id="pyN2dDHNcmE_-hGfzLAD-57" value="" style="edgeStyle=orthogonalEdgeStyle;rounded=0;orthogonalLoop=1;jettySize=auto;html=1;curved=1;" parent="1" source="pyN2dDHNcmE_-hGfzLAD-130" target="pyN2dDHNcmE_-hGfzLAD-56" edge="1">
          <mxGeometry relative="1" as="geometry" />
        </mxCell>
        <mxCell id="pyN2dDHNcmE_-hGfzLAD-72" value="" style="edgeStyle=orthogonalEdgeStyle;rounded=0;orthogonalLoop=1;jettySize=auto;html=1;curved=1;entryX=0.5;entryY=0;entryDx=0;entryDy=0;" parent="1" source="pyN2dDHNcmE_-hGfzLAD-118" target="pyN2dDHNcmE_-hGfzLAD-64" edge="1">
          <mxGeometry relative="1" as="geometry">
            <mxPoint x="767.0000000000005" y="2480" as="targetPoint" />
          </mxGeometry>
        </mxCell>
        <mxCell id="pyN2dDHNcmE_-hGfzLAD-53" value="&lt;font&gt;Jam Lembur = 4?&lt;/font&gt;" style="rhombus;whiteSpace=wrap;html=1;fontSize=15;" parent="1" vertex="1">
          <mxGeometry x="930" y="2400" width="166" height="160" as="geometry" />
        </mxCell>
        <mxCell id="pyN2dDHNcmE_-hGfzLAD-74" value="" style="edgeStyle=orthogonalEdgeStyle;rounded=0;orthogonalLoop=1;jettySize=auto;html=1;curved=1;entryX=0.5;entryY=0;entryDx=0;entryDy=0;" parent="1" source="pyN2dDHNcmE_-hGfzLAD-120" target="pyN2dDHNcmE_-hGfzLAD-65" edge="1">
          <mxGeometry relative="1" as="geometry">
            <mxPoint x="977" y="2740" as="targetPoint" />
          </mxGeometry>
        </mxCell>
        <mxCell id="pyN2dDHNcmE_-hGfzLAD-76" value="" style="edgeStyle=orthogonalEdgeStyle;rounded=0;orthogonalLoop=1;jettySize=auto;html=1;curved=1;entryX=0.5;entryY=0;entryDx=0;entryDy=0;exitX=0.5;exitY=1;exitDx=0;exitDy=0;" parent="1" source="pyN2dDHNcmE_-hGfzLAD-132" target="pyN2dDHNcmE_-hGfzLAD-66" edge="1">
          <mxGeometry relative="1" as="geometry">
            <mxPoint x="1469" y="2740" as="targetPoint" />
          </mxGeometry>
        </mxCell>
        <mxCell id="pyN2dDHNcmE_-hGfzLAD-56" value="&lt;font&gt;Jam Lembur &amp;gt;= 5?&lt;/font&gt;" style="rhombus;whiteSpace=wrap;html=1;fontSize=15;" parent="1" vertex="1">
          <mxGeometry x="1140" y="2660" width="166" height="160" as="geometry" />
        </mxCell>
        <mxCell id="pyN2dDHNcmE_-hGfzLAD-79" value="" style="edgeStyle=orthogonalEdgeStyle;rounded=0;orthogonalLoop=1;jettySize=auto;html=1;curved=1;entryX=0.5;entryY=0;entryDx=0;entryDy=0;exitX=0.5;exitY=1;exitDx=0;exitDy=0;" parent="1" source="pyN2dDHNcmE_-hGfzLAD-58" target="pyN2dDHNcmE_-hGfzLAD-77" edge="1">
          <mxGeometry relative="1" as="geometry">
            <mxPoint x="-451" y="3110" as="targetPoint" />
          </mxGeometry>
        </mxCell>
        <mxCell id="pyN2dDHNcmE_-hGfzLAD-58" value="Persentase = 30%" style="whiteSpace=wrap;html=1;fontSize=15;" parent="1" vertex="1">
          <mxGeometry x="-651" y="2940" width="238" height="60" as="geometry" />
        </mxCell>
        <mxCell id="pyN2dDHNcmE_-hGfzLAD-83" value="" style="edgeStyle=orthogonalEdgeStyle;rounded=0;orthogonalLoop=1;jettySize=auto;html=1;curved=1;entryX=0.5;entryY=0;entryDx=0;entryDy=0;exitX=0.5;exitY=1;exitDx=0;exitDy=0;" parent="1" source="pyN2dDHNcmE_-hGfzLAD-62" target="pyN2dDHNcmE_-hGfzLAD-77" edge="1">
          <mxGeometry relative="1" as="geometry">
            <mxPoint x="-91" y="3110" as="targetPoint" />
          </mxGeometry>
        </mxCell>
        <mxCell id="pyN2dDHNcmE_-hGfzLAD-62" value="Persentase = 32%" style="whiteSpace=wrap;html=1;fontSize=15;" parent="1" vertex="1">
          <mxGeometry x="-280" y="2940" width="238" height="60" as="geometry" />
        </mxCell>
        <mxCell id="pyN2dDHNcmE_-hGfzLAD-85" value="" style="edgeStyle=orthogonalEdgeStyle;rounded=0;orthogonalLoop=1;jettySize=auto;html=1;curved=1;entryX=0.5;entryY=0;entryDx=0;entryDy=0;" parent="1" source="pyN2dDHNcmE_-hGfzLAD-63" target="pyN2dDHNcmE_-hGfzLAD-77" edge="1">
          <mxGeometry relative="1" as="geometry">
            <mxPoint x="269" y="3110" as="targetPoint" />
          </mxGeometry>
        </mxCell>
        <mxCell id="pyN2dDHNcmE_-hGfzLAD-63" value="Persentase = 34%" style="whiteSpace=wrap;html=1;fontSize=15;" parent="1" vertex="1">
          <mxGeometry x="97" y="2940" width="238" height="60" as="geometry" />
        </mxCell>
        <mxCell id="pyN2dDHNcmE_-hGfzLAD-87" value="" style="edgeStyle=orthogonalEdgeStyle;rounded=0;orthogonalLoop=1;jettySize=auto;html=1;curved=1;entryX=0.5;entryY=0;entryDx=0;entryDy=0;" parent="1" source="pyN2dDHNcmE_-hGfzLAD-64" target="pyN2dDHNcmE_-hGfzLAD-77" edge="1">
          <mxGeometry relative="1" as="geometry">
            <mxPoint x="651" y="3110" as="targetPoint" />
          </mxGeometry>
        </mxCell>
        <mxCell id="pyN2dDHNcmE_-hGfzLAD-64" value="Persentase = 36%" style="whiteSpace=wrap;html=1;fontSize=15;" parent="1" vertex="1">
          <mxGeometry x="481" y="2940" width="238" height="60" as="geometry" />
        </mxCell>
        <mxCell id="pyN2dDHNcmE_-hGfzLAD-89" value="" style="edgeStyle=orthogonalEdgeStyle;rounded=0;orthogonalLoop=1;jettySize=auto;html=1;curved=1;entryX=0.5;entryY=0;entryDx=0;entryDy=0;exitX=0.5;exitY=1;exitDx=0;exitDy=0;" parent="1" source="pyN2dDHNcmE_-hGfzLAD-65" target="pyN2dDHNcmE_-hGfzLAD-77" edge="1">
          <mxGeometry relative="1" as="geometry">
            <mxPoint x="1015" y="3110" as="targetPoint" />
          </mxGeometry>
        </mxCell>
        <mxCell id="pyN2dDHNcmE_-hGfzLAD-65" value="Persentase = 38%" style="whiteSpace=wrap;html=1;fontSize=15;" parent="1" vertex="1">
          <mxGeometry x="870" y="2940" width="238" height="60" as="geometry" />
        </mxCell>
        <mxCell id="pyN2dDHNcmE_-hGfzLAD-91" value="" style="edgeStyle=orthogonalEdgeStyle;rounded=0;orthogonalLoop=1;jettySize=auto;html=1;curved=1;entryX=0.5;entryY=0;entryDx=0;entryDy=0;exitX=0.5;exitY=1;exitDx=0;exitDy=0;" parent="1" source="pyN2dDHNcmE_-hGfzLAD-66" target="pyN2dDHNcmE_-hGfzLAD-77" edge="1">
          <mxGeometry relative="1" as="geometry">
            <mxPoint x="1389" y="3110" as="targetPoint" />
          </mxGeometry>
        </mxCell>
        <mxCell id="pyN2dDHNcmE_-hGfzLAD-66" value="Persentase = 0%" style="whiteSpace=wrap;html=1;fontSize=15;" parent="1" vertex="1">
          <mxGeometry x="1290" y="2940" width="238" height="60" as="geometry" />
        </mxCell>
        <mxCell id="pyN2dDHNcmE_-hGfzLAD-95" value="" style="edgeStyle=orthogonalEdgeStyle;rounded=0;orthogonalLoop=1;jettySize=auto;html=1;" parent="1" source="pyN2dDHNcmE_-hGfzLAD-77" target="pyN2dDHNcmE_-hGfzLAD-94" edge="1">
          <mxGeometry relative="1" as="geometry" />
        </mxCell>
        <mxCell id="pyN2dDHNcmE_-hGfzLAD-77" value="&lt;font style=&quot;font-size: 15px;&quot;&gt;Gaji Lembur = Gaji Pokok&lt;/font&gt;&lt;div&gt;&lt;font style=&quot;font-size: 15px;&quot;&gt;x&amp;nbsp; Persentase&lt;/font&gt;&lt;/div&gt;" style="rounded=0;whiteSpace=wrap;html=1;" parent="1" vertex="1">
          <mxGeometry x="271" y="3170" width="286" height="70" as="geometry" />
        </mxCell>
        <mxCell id="WStjAMLRucy8ODhFkWlN-2" value="" style="edgeStyle=orthogonalEdgeStyle;rounded=0;orthogonalLoop=1;jettySize=auto;html=1;" edge="1" parent="1" source="pyN2dDHNcmE_-hGfzLAD-94" target="WStjAMLRucy8ODhFkWlN-1">
          <mxGeometry relative="1" as="geometry" />
        </mxCell>
        <mxCell id="pyN2dDHNcmE_-hGfzLAD-94" value="&lt;span style=&quot;font-size: 15px;&quot;&gt;Total Penghasilan = Gaji&lt;/span&gt;&lt;div&gt;&lt;span style=&quot;font-size: 15px;&quot;&gt;Pokok + Gaji Lembur&lt;/span&gt;&lt;/div&gt;" style="rounded=0;whiteSpace=wrap;html=1;" parent="1" vertex="1">
          <mxGeometry x="271" y="3320" width="286" height="70" as="geometry" />
        </mxCell>
        <mxCell id="pyN2dDHNcmE_-hGfzLAD-104" value="&lt;font style=&quot;font-size: 15px;&quot;&gt;Selesai&lt;/font&gt;" style="rounded=1;whiteSpace=wrap;html=1;arcSize=50;" parent="1" vertex="1">
          <mxGeometry x="354" y="3630" width="120" height="60" as="geometry" />
        </mxCell>
        <mxCell id="pyN2dDHNcmE_-hGfzLAD-107" value="" style="edgeStyle=orthogonalEdgeStyle;rounded=0;orthogonalLoop=1;jettySize=auto;html=1;curved=1;" parent="1" source="pyN2dDHNcmE_-hGfzLAD-11" target="pyN2dDHNcmE_-hGfzLAD-106" edge="1">
          <mxGeometry relative="1" as="geometry">
            <mxPoint x="335" y="460" as="sourcePoint" />
            <mxPoint x="-60" y="1310" as="targetPoint" />
          </mxGeometry>
        </mxCell>
        <mxCell id="pyN2dDHNcmE_-hGfzLAD-106" value="Ya" style="text;html=1;align=center;verticalAlign=middle;whiteSpace=wrap;rounded=0;" parent="1" vertex="1">
          <mxGeometry x="-90" y="910" width="60" height="30" as="geometry" />
        </mxCell>
        <mxCell id="pyN2dDHNcmE_-hGfzLAD-109" value="" style="edgeStyle=orthogonalEdgeStyle;rounded=0;orthogonalLoop=1;jettySize=auto;html=1;curved=1;" parent="1" source="pyN2dDHNcmE_-hGfzLAD-13" target="pyN2dDHNcmE_-hGfzLAD-108" edge="1">
          <mxGeometry relative="1" as="geometry">
            <mxPoint x="520" y="750" as="sourcePoint" />
            <mxPoint x="253" y="1310" as="targetPoint" />
          </mxGeometry>
        </mxCell>
        <mxCell id="pyN2dDHNcmE_-hGfzLAD-108" value="Ya" style="text;html=1;align=center;verticalAlign=middle;whiteSpace=wrap;rounded=0;" parent="1" vertex="1">
          <mxGeometry x="222.5" y="1090" width="60" height="30" as="geometry" />
        </mxCell>
        <mxCell id="pyN2dDHNcmE_-hGfzLAD-111" value="" style="edgeStyle=orthogonalEdgeStyle;rounded=0;orthogonalLoop=1;jettySize=auto;html=1;curved=1;" parent="1" source="pyN2dDHNcmE_-hGfzLAD-16" target="pyN2dDHNcmE_-hGfzLAD-110" edge="1">
          <mxGeometry relative="1" as="geometry">
            <mxPoint x="710" y="1020" as="sourcePoint" />
            <mxPoint x="570" y="1310" as="targetPoint" />
          </mxGeometry>
        </mxCell>
        <mxCell id="pyN2dDHNcmE_-hGfzLAD-110" value="Ya" style="text;html=1;align=center;verticalAlign=middle;whiteSpace=wrap;rounded=0;" parent="1" vertex="1">
          <mxGeometry x="540" y="1180" width="60" height="30" as="geometry" />
        </mxCell>
        <mxCell id="pyN2dDHNcmE_-hGfzLAD-113" value="" style="edgeStyle=orthogonalEdgeStyle;rounded=0;orthogonalLoop=1;jettySize=auto;html=1;curved=1;" parent="1" source="pyN2dDHNcmE_-hGfzLAD-48" target="pyN2dDHNcmE_-hGfzLAD-112" edge="1">
          <mxGeometry relative="1" as="geometry">
            <mxPoint x="331" y="1674" as="sourcePoint" />
            <mxPoint x="-532" y="2940" as="targetPoint" />
          </mxGeometry>
        </mxCell>
        <mxCell id="pyN2dDHNcmE_-hGfzLAD-112" value="Ya" style="text;html=1;align=center;verticalAlign=middle;whiteSpace=wrap;rounded=0;" parent="1" vertex="1">
          <mxGeometry x="-562" y="2420" width="60" height="30" as="geometry" />
        </mxCell>
        <mxCell id="pyN2dDHNcmE_-hGfzLAD-115" value="" style="edgeStyle=orthogonalEdgeStyle;rounded=0;orthogonalLoop=1;jettySize=auto;html=1;curved=1;" parent="1" source="pyN2dDHNcmE_-hGfzLAD-49" target="pyN2dDHNcmE_-hGfzLAD-114" edge="1">
          <mxGeometry relative="1" as="geometry">
            <mxPoint x="540" y="1940" as="sourcePoint" />
            <mxPoint x="-161" y="2940" as="targetPoint" />
          </mxGeometry>
        </mxCell>
        <mxCell id="pyN2dDHNcmE_-hGfzLAD-114" value="Ya" style="text;html=1;align=center;verticalAlign=middle;whiteSpace=wrap;rounded=0;" parent="1" vertex="1">
          <mxGeometry x="-191" y="2560" width="60" height="30" as="geometry" />
        </mxCell>
        <mxCell id="pyN2dDHNcmE_-hGfzLAD-117" value="" style="edgeStyle=orthogonalEdgeStyle;rounded=0;orthogonalLoop=1;jettySize=auto;html=1;curved=1;entryX=0.5;entryY=0;entryDx=0;entryDy=0;" parent="1" source="pyN2dDHNcmE_-hGfzLAD-51" target="pyN2dDHNcmE_-hGfzLAD-116" edge="1">
          <mxGeometry relative="1" as="geometry">
            <mxPoint x="730" y="2200" as="sourcePoint" />
            <mxPoint x="216" y="2940" as="targetPoint" />
          </mxGeometry>
        </mxCell>
        <mxCell id="pyN2dDHNcmE_-hGfzLAD-116" value="Ya" style="text;html=1;align=center;verticalAlign=middle;whiteSpace=wrap;rounded=0;" parent="1" vertex="1">
          <mxGeometry x="186" y="2660" width="60" height="30" as="geometry" />
        </mxCell>
        <mxCell id="pyN2dDHNcmE_-hGfzLAD-119" value="" style="edgeStyle=orthogonalEdgeStyle;rounded=0;orthogonalLoop=1;jettySize=auto;html=1;curved=1;entryX=0.5;entryY=0;entryDx=0;entryDy=0;" parent="1" source="pyN2dDHNcmE_-hGfzLAD-53" target="pyN2dDHNcmE_-hGfzLAD-118" edge="1">
          <mxGeometry relative="1" as="geometry">
            <mxPoint x="930" y="2480" as="sourcePoint" />
            <mxPoint x="600" y="2940" as="targetPoint" />
          </mxGeometry>
        </mxCell>
        <mxCell id="pyN2dDHNcmE_-hGfzLAD-118" value="Ya" style="text;html=1;align=center;verticalAlign=middle;whiteSpace=wrap;rounded=0;" parent="1" vertex="1">
          <mxGeometry x="570" y="2760" width="60" height="30" as="geometry" />
        </mxCell>
        <mxCell id="pyN2dDHNcmE_-hGfzLAD-121" value="" style="edgeStyle=orthogonalEdgeStyle;rounded=0;orthogonalLoop=1;jettySize=auto;html=1;curved=1;entryX=0.5;entryY=0;entryDx=0;entryDy=0;" parent="1" source="pyN2dDHNcmE_-hGfzLAD-56" target="pyN2dDHNcmE_-hGfzLAD-120" edge="1">
          <mxGeometry relative="1" as="geometry">
            <mxPoint x="1140" y="2740" as="sourcePoint" />
            <mxPoint x="989" y="2940" as="targetPoint" />
          </mxGeometry>
        </mxCell>
        <mxCell id="pyN2dDHNcmE_-hGfzLAD-120" value="Ya" style="text;html=1;align=center;verticalAlign=middle;whiteSpace=wrap;rounded=0;" parent="1" vertex="1">
          <mxGeometry x="959" y="2850" width="60" height="30" as="geometry" />
        </mxCell>
        <mxCell id="pyN2dDHNcmE_-hGfzLAD-123" value="" style="edgeStyle=orthogonalEdgeStyle;rounded=0;orthogonalLoop=1;jettySize=auto;html=1;curved=1;exitX=1;exitY=0.5;exitDx=0;exitDy=0;" parent="1" source="pyN2dDHNcmE_-hGfzLAD-16" target="pyN2dDHNcmE_-hGfzLAD-122" edge="1">
          <mxGeometry relative="1" as="geometry">
            <mxPoint x="868" y="1020" as="sourcePoint" />
            <mxPoint x="890" y="1310" as="targetPoint" />
          </mxGeometry>
        </mxCell>
        <mxCell id="pyN2dDHNcmE_-hGfzLAD-122" value="Tidak" style="text;html=1;align=center;verticalAlign=middle;whiteSpace=wrap;rounded=0;" parent="1" vertex="1">
          <mxGeometry x="860" y="1169" width="60" height="30" as="geometry" />
        </mxCell>
        <mxCell id="pyN2dDHNcmE_-hGfzLAD-125" value="" style="edgeStyle=orthogonalEdgeStyle;rounded=0;orthogonalLoop=1;jettySize=auto;html=1;curved=1;" parent="1" source="pyN2dDHNcmE_-hGfzLAD-48" target="pyN2dDHNcmE_-hGfzLAD-124" edge="1">
          <mxGeometry relative="1" as="geometry">
            <mxPoint x="497" y="1674" as="sourcePoint" />
            <mxPoint x="623" y="1860" as="targetPoint" />
          </mxGeometry>
        </mxCell>
        <mxCell id="pyN2dDHNcmE_-hGfzLAD-124" value="Tidak" style="text;html=1;align=center;verticalAlign=middle;whiteSpace=wrap;rounded=0;" parent="1" vertex="1">
          <mxGeometry x="593" y="1780" width="60" height="30" as="geometry" />
        </mxCell>
        <mxCell id="pyN2dDHNcmE_-hGfzLAD-127" value="" style="edgeStyle=orthogonalEdgeStyle;rounded=0;orthogonalLoop=1;jettySize=auto;html=1;curved=1;" parent="1" source="pyN2dDHNcmE_-hGfzLAD-49" target="pyN2dDHNcmE_-hGfzLAD-126" edge="1">
          <mxGeometry relative="1" as="geometry">
            <mxPoint x="706" y="1940" as="sourcePoint" />
            <mxPoint x="813" y="2120" as="targetPoint" />
          </mxGeometry>
        </mxCell>
        <mxCell id="pyN2dDHNcmE_-hGfzLAD-126" value="Tidak" style="text;html=1;align=center;verticalAlign=middle;whiteSpace=wrap;rounded=0;" parent="1" vertex="1">
          <mxGeometry x="783" y="2040" width="60" height="30" as="geometry" />
        </mxCell>
        <mxCell id="pyN2dDHNcmE_-hGfzLAD-129" value="" style="edgeStyle=orthogonalEdgeStyle;rounded=0;orthogonalLoop=1;jettySize=auto;html=1;curved=1;" parent="1" source="pyN2dDHNcmE_-hGfzLAD-51" target="pyN2dDHNcmE_-hGfzLAD-128" edge="1">
          <mxGeometry relative="1" as="geometry">
            <mxPoint x="896" y="2200" as="sourcePoint" />
            <mxPoint x="1013" y="2400" as="targetPoint" />
          </mxGeometry>
        </mxCell>
        <mxCell id="pyN2dDHNcmE_-hGfzLAD-128" value="Tidak" style="text;html=1;align=center;verticalAlign=middle;whiteSpace=wrap;rounded=0;" parent="1" vertex="1">
          <mxGeometry x="983" y="2320" width="60" height="30" as="geometry" />
        </mxCell>
        <mxCell id="pyN2dDHNcmE_-hGfzLAD-131" value="" style="edgeStyle=orthogonalEdgeStyle;rounded=0;orthogonalLoop=1;jettySize=auto;html=1;curved=1;" parent="1" source="pyN2dDHNcmE_-hGfzLAD-53" target="pyN2dDHNcmE_-hGfzLAD-130" edge="1">
          <mxGeometry relative="1" as="geometry">
            <mxPoint x="1096" y="2480" as="sourcePoint" />
            <mxPoint x="1223" y="2660" as="targetPoint" />
          </mxGeometry>
        </mxCell>
        <mxCell id="pyN2dDHNcmE_-hGfzLAD-130" value="Tidak" style="text;html=1;align=center;verticalAlign=middle;whiteSpace=wrap;rounded=0;" parent="1" vertex="1">
          <mxGeometry x="1193" y="2580" width="60" height="30" as="geometry" />
        </mxCell>
        <mxCell id="pyN2dDHNcmE_-hGfzLAD-133" value="" style="edgeStyle=orthogonalEdgeStyle;rounded=0;orthogonalLoop=1;jettySize=auto;html=1;curved=1;entryX=0.5;entryY=0;entryDx=0;entryDy=0;exitX=1;exitY=0.5;exitDx=0;exitDy=0;" parent="1" source="pyN2dDHNcmE_-hGfzLAD-56" target="pyN2dDHNcmE_-hGfzLAD-132" edge="1">
          <mxGeometry relative="1" as="geometry">
            <mxPoint x="1306" y="2740" as="sourcePoint" />
            <mxPoint x="1409" y="2940" as="targetPoint" />
          </mxGeometry>
        </mxCell>
        <mxCell id="pyN2dDHNcmE_-hGfzLAD-132" value="Tidak" style="text;html=1;align=center;verticalAlign=middle;whiteSpace=wrap;rounded=0;" parent="1" vertex="1">
          <mxGeometry x="1379" y="2850" width="60" height="30" as="geometry" />
        </mxCell>
        <mxCell id="WStjAMLRucy8ODhFkWlN-3" value="" style="edgeStyle=orthogonalEdgeStyle;rounded=0;orthogonalLoop=1;jettySize=auto;html=1;" edge="1" parent="1" source="WStjAMLRucy8ODhFkWlN-1" target="pyN2dDHNcmE_-hGfzLAD-104">
          <mxGeometry relative="1" as="geometry" />
        </mxCell>
        <mxCell id="WStjAMLRucy8ODhFkWlN-1" value="&lt;font style=&quot;font-size: 15px;&quot;&gt;Output: Golongan, Gaji Pokok, Gaji Lembur, Total Penghasilan&lt;/font&gt;" style="shape=parallelogram;perimeter=parallelogramPerimeter;whiteSpace=wrap;html=1;fixedSize=1;" vertex="1" parent="1">
          <mxGeometry x="270" y="3480" width="287" height="80" as="geometry" />
        </mxCell>
      </root>
    </mxGraphModel>
  </diagram>
</mxfile>
